<?xml version="1.0" encoding="UTF-8" standalone="no"?>
<!DOCTYPE svg PUBLIC "-//W3C//DTD SVG 1.1//EN" "http://www.w3.org/Graphics/SVG/1.1/DTD/svg11.dtd">
<svg width="100%" height="100%" viewBox="0 0 1781 904" version="1.1" xmlns="http://www.w3.org/2000/svg" xmlns:xlink="http://www.w3.org/1999/xlink" xml:space="preserve" xmlns:serif="http://www.serif.com/" style="fill-rule:evenodd;clip-rule:evenodd;stroke-linejoin:round;">
    <g transform="matrix(1,0,0,1,-295.276,-1249.89)">
        <g transform="matrix(1,0,0,1,242.392,33.4697)">
            <g transform="matrix(1.72131,0,0,1.72131,33.4855,1838.2)">
                <g transform="matrix(1,0,0,1,-4.2696,-1.99734)">
                    <path d="M835.131,14.833C848.689,55.493 864.054,104.307 882.17,165.524L906.527,165.524C920.234,124.685 931.738,91.902 940.85,67.862C949.881,89.751 961.445,123.875 974.568,165.524L999.578,165.524C1014.93,114.234 1031.77,64.021 1050,14.833L1026.78,14.833C1017.19,48.148 1007.16,81.325 996.438,114.287C983.821,82.378 972.757,48.856 962.176,14.833L938.359,14.833C927.535,49.544 916.444,83.574 904.494,115.424C894.918,83.998 885.231,49.853 875.508,14.833L835.131,14.833Z"/>
                </g>
                <g transform="matrix(1,0,0,1,-2.2696,-1.99734)">
                    <path d="M396.319,14.833C398.338,64.748 398.12,115.003 396.158,165.524C425.859,164.799 454.888,164.856 483.391,165.524L483.271,144.921C466.536,145.667 449.802,146.222 433.067,146.593L431.998,95.866C448.427,95.893 464.88,96.235 481.346,96.761C481.163,89.72 481.172,82.779 481.348,75.738C465.217,76.441 448.88,76.818 432.307,76.821L432.815,33.596C449.53,33.802 466.299,34.233 483.115,34.867L483.519,14.833L396.319,14.833Z"/>
                </g>
                <g transform="matrix(1,0,0,1,342.549,-1.99734)">
                    <path d="M396.319,14.833C398.338,64.748 398.12,115.003 396.158,165.524C425.859,164.799 454.888,164.856 483.391,165.524L483.271,144.921C466.536,145.667 449.802,146.222 433.067,146.593L431.998,95.866C448.427,95.893 464.88,96.235 481.346,96.761C481.163,89.72 481.172,82.779 481.348,75.738C465.217,76.441 448.88,76.818 432.307,76.821L432.815,33.596C449.53,33.802 466.299,34.233 483.115,34.867L483.519,14.833L396.319,14.833Z"/>
                </g>
                <g transform="matrix(1,0,0,1,247.334,-1.99734)">
                    <path d="M396.197,14.833C398.216,64.748 398.12,115.003 396.158,165.524C425.859,164.799 454.888,164.856 483.391,165.524L483.271,144.921C466.826,146.362 448.644,147.721 431.657,147.486C430.407,106.017 431.401,60.811 433.184,14.833L396.197,14.833Z"/>
                </g>
                <path d="M203.23,163.526C248.836,163.526 281.268,133.936 281.268,87.5C281.268,41.064 246.056,11.474 203.23,11.474C160.403,11.474 125.192,42.621 125.192,87.5C125.192,132.379 157.624,163.526 203.23,163.526ZM203.336,149.008C227.747,149.008 245.107,125.292 245.107,88.074C245.107,50.857 226.259,27.141 203.336,27.141C180.413,27.141 161.565,52.105 161.565,88.074C161.565,124.044 178.925,149.008 203.336,149.008Z"/>
                <g transform="matrix(0.96272,0,0,0.96272,10.3252,2.75919)">
                    <path d="M293.901,127.075L291.128,158.681C337.559,177.221 380.715,164.92 387.152,120.018C387.157,119.855 387.161,119.692 387.164,119.529C387.63,97.664 376.893,84.058 358.063,76.419C351.295,72.88 322.559,60.649 320.393,51.805C314.601,28.152 349.352,16.763 366.135,46.417L372.451,46.695L379.686,21.391C317.187,-10.515 275.291,33.409 292.34,76.783C299.207,94.253 326.373,104.896 337.867,109.853C377.22,126.826 337.322,180.465 300.501,127.261L293.901,127.075Z"/>
                </g>
                <path d="M11.444,162.587C13.966,113.151 13.786,63.578 11.27,14.142C11.27,14.142 52.507,12.808 64.544,12.836C71.877,12.852 77.292,12.993 83.488,14.306C109.088,19.733 115.499,39.688 115.416,52.392C115.333,65.232 113.494,79.82 83.488,90.939L128.952,162.137C114.627,161.359 100.78,161.315 87.197,162.137C74.197,137.488 61.378,116.074 48.714,97.455C48.568,119.503 49.368,141.037 50.728,162.266C36.486,161.63 23.553,161.717 11.444,162.587ZM48.129,29.123L48.304,81.82C89.583,87.097 87.632,21.164 48.129,29.123Z"/>
                <g transform="matrix(1,0,0,1,-2.2696,-1.99734)">
                    <path d="M500.11,165.524C500.318,115.229 500.384,64.998 500.306,14.833L521.156,14.833C570.699,70.964 601.33,105.254 606.72,110.397C607.127,84.534 606.768,51.429 606.04,14.833L627.407,14.833C626.023,65.171 625.793,115.396 626.565,165.524L603.992,165.524L519.568,68.081L522.623,165.524L500.11,165.524"/>
                </g>
            </g>
        </g>
        <g transform="matrix(1,0,0,1,242.392,33.4697)">
            <g transform="matrix(4.63123,0,0,4.36549,-3484.17,-6259.23)">
                <path d="M866.691,1820.94L844.761,1751.59C844.761,1751.59 880.561,1795.19 890.454,1790.21C900.524,1785.14 906.048,1763.07 906.048,1763.07C906.048,1763.07 923.314,1784.15 933.776,1780.43C944.592,1776.58 956.344,1716.74 956.344,1716.74C956.344,1716.74 968.014,1776.37 978.577,1780.43C989.306,1784.56 1006.85,1762.91 1006.85,1762.91C1006.85,1762.91 1011.35,1785.47 1021.55,1790.21C1032.03,1795.08 1067.2,1751.48 1067.2,1751.48L1041.49,1820.94" style="fill:none;stroke:black;stroke-width:8.33px;"/>
            </g>
        </g>
        <g transform="matrix(1,0,0,1,242.392,33.4697)">
            <g transform="matrix(0.964179,0,0,1,-25.6409,-17.2744)">
                <path d="M684.645,1690.44C898.351,1628.14 1111.34,1630.25 1323.69,1690.44" style="fill:none;stroke:black;stroke-width:33.94px;stroke-linecap:square;stroke-linejoin:miter;stroke-miterlimit:5;"/>
            </g>
        </g>
    </g>
</svg>
